# xmcd
#
# Track frame offsets:
#	150
#	21251
#	39468
#	62460
#	88290
#	111385
#	126024
#	139874
#	157705
#	180883
#	206690
#	231002
#	250520
#	264866
#	276649
#	288916
#	314347
#	333522
#
# Disc length: 4659 seconds
#
# Revision: 0
# Processed by: cddbd v1.5.2PL0 Copyright (c) Steve Scherf et al.
# Submitted via: dBpowerAMP V4.0
#
DISCID=fa123112
DTITLE=Varios Artistas - Sensaciones V.02
DYEAR=2006
DGENRE=Easy Listening
TTITLE0=Sarah Vaughan - Whatever Lola Wants
TTITLE1=Rod Stewart and Eric Clapton - Blue Moon
TTITLE2=Vanessa Williams feat George Benson - Never Can Say Goodbye
TTITLE3=Brazilian Girls - Me Gusta Cuando Callas
TTITLE4=Miguel Cantilo - Donde Va La Gente Cuando Llueve
TTITLE5=Downtempo Remix - Imagina
TTITLE6=The Beatles Chillout - And I Love Her
TTITLE7=Toquinho - Aquarela Do Brasil
TTITLE8=Caetano Veloso - Desde Que Samba Es Samba
TTITLE9=Sting and Andy Summer - Round Midnight
TTITLE10=Diana Caroll - I Don't Want To Talk About It
TTITLE11=Billie Holiday - Speak Low
TTITLE12=Bebo and Cigala - Inolvidable
TTITLE13=Caetano Veloso - Capullito De Aleli
TTITLE14=Carla Bruni - Quelqu' un m' Adit
TTITLE15=Mike Oldfield - Surfing
TTITLE16=Cindy Lauper feat Sarah McLachlam - Time After Time
TTITLE17=Katie Melua - Just Like Heaven
EXTD=Este album fue editado en 2006 en Argentina. Ripeado por Fallen Lugosi, ARGENTINA
EXTT0=
EXTT1=
EXTT2=
EXTT3=
EXTT4=
EXTT5=
EXTT6=
EXTT7=
EXTT8=
EXTT9=
EXTT10=
EXTT11=
EXTT12=
EXTT13=
EXTT14=
EXTT15=
EXTT16=
EXTT17=
PLAYORDER=
